# xmcd CD database file
#
# Track frame offsets:
#	150
#	89548
#	145473
#	181640
#	243745
#
# Disc length: 3788 seconds
#
# Revision: 0
# Processed by: cddbd v1.5.1PL2 Copyright (c) Steve Scherf et al.
# Submitted via: CDex 1.51
#
DISCID=410eca05
DTITLE=Kip Mazuy - Ocean Euphoric
DYEAR=2002
DGENRE=New Age
TTITLE0=Ocean Euphoric Part 1
TTITLE1=Ocean Euphoric Part 2
TTITLE2=Ocean Euphoric Part 3
TTITLE3=Ocean Euphoric Part 4
TTITLE4=Ocean Euphoric Part 5
EXTD=YEAR: 2002
EXTT0=
EXTT1=
EXTT2=
EXTT3=
EXTT4=
PLAYORDER=
